<svg width="299" height="314" viewBox="0 0 299 314" fill="none" xmlns="http://www.w3.org/2000/svg">
<ellipse cx="143.265" cy="170.876" rx="103.77" ry="105.057" fill="#C4C4C4" fill-opacity="0.7"/>
<ellipse cx="143.265" cy="170.876" rx="103.77" ry="105.057" fill="url(#paint0_linear)" fill-opacity="0.7"/>
<ellipse cx="143.265" cy="170.876" rx="103.77" ry="105.057" fill="url(#paint1_linear)" fill-opacity="0.7"/>
<ellipse cx="143.265" cy="170.876" rx="103.77" ry="105.057" fill="url(#paint2_linear)" fill-opacity="0.7"/>
<path d="M235.57 270.032C252.937 255.118 266.123 236.22 273.907 215.086C281.692 193.952 283.823 171.266 280.103 149.127C276.383 126.988 266.933 106.111 252.627 88.43C238.322 70.7488 219.623 56.8341 198.261 47.9738C176.899 39.1135 153.566 35.5939 130.419 37.7409C107.273 39.8879 85.0621 47.632 65.8427 60.2565C46.6233 72.881 31.0164 89.9779 20.4665 109.965C9.91662 129.951 4.76472 152.182 5.48766 174.599L9.45923 174.48C8.75708 152.707 13.7609 131.116 24.0075 111.703C34.2541 92.2912 49.4124 75.6858 68.0794 63.4242C86.7463 51.1626 108.319 43.6411 130.8 41.5558C153.281 39.4705 175.944 42.8889 196.691 51.4945C217.439 60.1001 235.6 73.6149 249.495 90.7878C263.389 107.961 272.568 128.237 276.181 149.74C279.793 171.242 277.724 193.277 270.163 213.803C262.603 234.329 249.796 252.685 232.928 267.17L235.57 270.032Z" fill="#BBC7A9" fill-opacity="0.7"/>
<path d="M22.2684 177.93C25.6174 202.479 35.5838 225.418 51.0319 244.132C66.48 262.846 86.7889 276.584 109.645 283.781C132.501 290.978 156.985 291.343 180.307 284.837C203.63 278.33 224.853 265.212 241.56 246.978L238.908 244.383C222.682 262.093 202.069 274.833 179.416 281.153C156.764 287.473 132.984 287.118 110.785 280.128C88.5864 273.138 68.8614 259.795 53.8573 241.619C38.8532 223.442 29.1734 201.163 25.9206 177.32L22.2684 177.93Z" fill="#A0DCEA" fill-opacity="0.7"/>
<path d="M254.458 131.685C252.339 115.562 242.762 99.4669 227.21 85.8961C211.658 72.3253 191 62.0365 168.438 56.6243C145.877 51.2122 122.672 50.979 102.42 55.961C82.168 60.943 66.0006 70.8619 56.4237 84.1802L59.1393 85.379C68.4409 72.4436 84.1435 62.8098 103.813 57.971C123.483 53.1322 146.021 53.3586 167.934 58.6152C189.847 63.8718 209.911 73.8649 225.016 87.0456C240.121 100.226 249.423 115.858 251.481 131.519L254.458 131.685Z" fill="#CFD1CE" fill-opacity="0.7"/>
<defs>
<linearGradient id="paint0_linear" x1="143.265" y1="65.8189" x2="143.265" y2="275.933" gradientUnits="userSpaceOnUse">
<stop stop-color="#FFA5A5"/>
<stop offset="1" stop-color="white" stop-opacity="0"/>
</linearGradient>
<linearGradient id="paint1_linear" x1="-21.6833" y1="297.029" x2="279.132" y2="229.626" gradientUnits="userSpaceOnUse">
<stop stop-color="#6F9341"/>
<stop offset="1" stop-color="white" stop-opacity="0"/>
</linearGradient>
<linearGradient id="paint2_linear" x1="381.781" y1="233.742" x2="58.1468" y2="308.352" gradientUnits="userSpaceOnUse">
<stop stop-color="#00D1FF"/>
<stop offset="1" stop-color="white" stop-opacity="0"/>
</linearGradient>
</defs>
</svg>
